<svg xmlns="http://www.w3.org/2000/svg" viewBox="0 0 1364.21 300"><defs><style>.cls-1{fill:#fff;}</style></defs><title>Asset 6</title><g id="Layer_2" data-name="Layer 2"><g id="Layer_1-2" data-name="Layer 1"><path class="cls-1" d="M133.14,144.51,68,0H0L97.54,219.52a1.2,1.2,0,0,0,2.19,0Z"/><path class="cls-1" d="M275.18,0S187,199,175.93,223.35c-26.38,58.21-45.94,72.76-65.84,75.89a.38.38,0,0,0,.06.76h62.28c27.42,0,46.18-18.44,72.6-76.65C254.27,203,344.38,0,344.38,0Z"/><path class="cls-1" d="M703.48,75c-44,0-72.3,28.5-72.3,75s28.3,75,72.3,75,72.3-28.5,72.3-75S747.38,75,703.48,75Zm0,126.3c-28.1,0-46.5-18.3-46.5-51.3s18.4-51.3,46.5-51.3S750,117,750,150,731.48,201.3,703.48,201.3Z"/><path class="cls-1" d="M925.05,78.3V221.7H895.27L824.35,116.62V221.7H799V78.3h29.88l70.92,105.79V78.3Z"/><polygon class="cls-1" points="1364.21 102.3 1364.21 78.3 1261.11 78.3 1261.11 221.7 1364.21 221.7 1364.21 197.7 1286.51 197.7 1286.51 160 1358.15 160 1358.15 136 1286.51 136 1286.51 102.3 1364.21 102.3"/><path class="cls-1" d="M599.29,78.31l-51.4,112.84a.75.75,0,0,1-1.36,0L495.13,78.31H466.08S516.36,189.2,520.27,197.8c7.92,17.49,14.47,25.55,26.94,25.55s19-8.06,26.95-25.55L628.34,78.31Z"/><path class="cls-1" d="M1043.29,102.34c-7.68-17.6-13.43-25.55-25.38-25.55h0c-11.95,0-17.7,7.95-25.38,25.55-3.73,8.55-51.91,119.49-51.91,119.49H967.4l14.83-34.72h71.35l14.83,34.72h26.79S1047,110.89,1043.29,102.34ZM992.52,163l24.69-58a.76.76,0,0,1,1.39,0L1043.29,163Z"/><path class="cls-1" d="M1165.44,143.9v21.73h43c-1.89,19.27-20.34,35.41-42.15,35.41-25.81,0-44.54-18.86-44.54-50v0h0c0-32.4,17.33-52.3,46.86-52.3,17.61,0,32.13,8.42,37,23h26.28C1226.19,92.41,1200.13,75,1168.64,75c-44.9,0-72.66,29.4-72.66,76.6,0,45.8,30.35,73.4,68.16,73.4,32.48,0,44.81-18.9,48.26-24.95V221.7h22.5V143.9Z"/></g></g></svg>